# xmcd
# 
# Track frame offsets:
#     150
#     14257
#     31925
#     49982
#     71102
#     89658
#     100870
#     118615
#     144025
#     332550
# 
# Disc length: 4440
# 
# Revision: 7
# Processed by: cddbd v1.5.2PL0 Copyright (c) Steve Scherf et al.
# Submitted via: BonkEnc v1.0
# 
DISCID=8411560a
DTITLE=PUFFY - 59
DYEAR=2004
DGENRE=JPop
TTITLE0=TEEN TITANS THEME
TTITLE1=SUNRISE
TTITLE2=JOINING A FAN CLUB
TTITLE3=心に花を
TTITLE4=風まかせ二人旅
TTITLE5=FOREVER
TTITLE6=SO LONG ZERO
TTITLE7=TEEN TITANS THEME・日本語
TTITLE8=レーベルゲートデータ
TTITLE9=レーベルゲートデータ２
EXTD=
EXTT0=
EXTT1=
EXTT2=
EXTT3=
EXTT4=
EXTT5=
EXTT6=
EXTT7=
EXTT8=
EXTT9=
PLAYORDER=
